<svg xmlns="http://www.w3.org/2000/svg" viewBox="0 0 79.96 90.59"><defs><style>.cls-1,.cls-2,.cls-4{fill:#fff;}.cls-2,.cls-4{stroke:#381207;stroke-miterlimit:10;}.cls-2{stroke-width:2px;}.cls-3{fill:#381207;}</style></defs><title>兔子</title><g id="图层_2" data-name="图层 2"><g id="图层_1-2" data-name="图层 1"><path class="cls-1" d="M75.87,65.27l0,.09c-4.87,10.79-12,18-21.22,21.33C38,92.74,20.08,84.31,20,84.25,9.72,78.3,3.74,70.87,2.16,62.17c-2.63-14.55,8.1-27.89,8.21-28l.24-.29-.11-.36c0-.15-4.44-14.62.1-22.22A9,9,0,0,1,16.84,7a13.83,13.83,0,0,1,4.34-.19C31.74,8,36.27,21.9,36.32,22.06l1.35-.43A32,32,0,0,0,30.52,10c4.55-9.22,11-8.29,11.3-8.24h.11C57.15,1.92,60.5,25,60.53,25.19l0,.27.21.18c7.55,6.24,16.7,16.17,17.46,28A20.79,20.79,0,0,1,75.87,65.27Z"/><path class="cls-2" d="M37,21.84S31.13,3.4,16.67,6.26,9.79,33.7,9.79,33.7s-25.22,30.79,9.78,51.16c0,0,39.61,19,56.86-19.22,0,0,11.71-18.27-15.23-40.55,0,0-3.28-23.86-19.29-24,0,0-7.47-1.28-12.34,9.22"/><circle class="cls-3" cx="32.05" cy="56.71" r="2.61" transform="translate(-28.04 81.86) rotate(-83.24)"/><circle class="cls-3" cx="53.8" cy="54.42" r="2.61" transform="translate(-6.58 101.43) rotate(-83.24)"/><path class="cls-4" d="M39.72,60.15s.8,2.89,2.49,2.26,1.15-2.8,2.39-2.33,2.15,1.79,3.43.62a1.79,1.79,0,0,0,.62-2.25"/></g></g></svg>